STARTFONT 2.1
FONT -FontForge-Hanalei-Book-R-Normal--18-180-72-72-P-91-ISO10646-1
SIZE 18 72 72
FONTBOUNDINGBOX 23 24 -1 -5
COMMENT "Generated by fontforge, http://fontforge.sourceforge.net"
COMMENT "Copyright (c) 2012 by Brian J. Bonislawsky DBA Astigmatic (AOETI) (astigma@astigmatic.com), with ReservedFont Name "Hanalei""
STARTPROPERTIES 39
FOUNDRY "FontForge"
FAMILY_NAME "Hanalei"
WEIGHT_NAME "Book"
SLANT "R"
SETWIDTH_NAME "Normal"
ADD_STYLE_NAME ""
PIXEL_SIZE 18
POINT_SIZE 180
RESOLUTION_X 72
RESOLUTION_Y 72
SPACING "P"
AVERAGE_WIDTH 91
CHARSET_REGISTRY "ISO10646"
CHARSET_ENCODING "1"
FONTNAME_REGISTRY ""
CHARSET_COLLECTIONS "ISO8859-2 ISO8859-9 ISO8859-4 ISO10646-1"
FONT_NAME "Hanalei-Regular"
FACE_NAME "Hanalei"
COPYRIGHT "Copyright (c) 2012 by Brian J. Bonislawsky DBA Astigmatic (AOETI) (astigma@astigmatic.com), with ReservedFont Name "Hanalei""
FONT_VERSION "1.000"
FONT_ASCENT 14
FONT_DESCENT 4
UNDERLINE_POSITION -2
UNDERLINE_THICKNESS 1
X_HEIGHT 11
CAP_HEIGHT 11
RAW_ASCENT 799
RAW_DESCENT 200
NORM_SPACE 4
RELATIVE_WEIGHT 40
RELATIVE_SETWIDTH 50
SUPERSCRIPT_X 0
SUPERSCRIPT_Y 8
SUPERSCRIPT_SIZE 11
SUBSCRIPT_X 0
SUBSCRIPT_Y 2
SUBSCRIPT_SIZE 11
AVG_LOWERCASE_WIDTH 97
AVG_UPPERCASE_WIDTH 95
ENDPROPERTIES
CHARS 366
STARTCHAR space
ENCODING 32
SWIDTH 200 0
DWIDTH 4 0
BBX 1 1 0 0
BITMAP
00
ENDCHAR
STARTCHAR exclam
ENCODING 33
SWIDTH 257 0
DWIDTH 5 0
BBX 3 12 1 0
BITMAP
E0
A0
A0
A0
E0
A0
A0
A0
C0
C0
A0
E0
ENDCHAR
STARTCHAR quotedbl
ENCODING 34
SWIDTH 476 0
DWIDTH 9 0
BBX 8 7 0 6
BITMAP
F7
55
55
BB
95
95
F7
ENDCHAR
STARTCHAR numbersign
ENCODING 35
SWIDTH 1076 0
DWIDTH 19 0
BBX 18 13 1 0
BITMAP
619480
926B40
B2A3C0
AABE40
FBA940
A4A940
A6A7C0
92BA40
EFAD40
A99280
A99F00
A59080
E79F80
ENDCHAR
STARTCHAR dollar
ENCODING 36
SWIDTH 453 0
DWIDTH 8 0
BBX 8 16 0 -2
BITMAP
1C
24
26
19
69
86
78
CC
33
19
37
CB
8C
74
24
3C
ENDCHAR
STARTCHAR percent
ENCODING 37
SWIDTH 889 0
DWIDTH 16 0
BBX 16 12 0 0
BITMAP
7CC0
B4A0
AD40
ADC0
5240
CD7E
32D3
03BD
02B5
02DD
04A5
031E
ENDCHAR
STARTCHAR ampersand
ENCODING 38
SWIDTH 627 0
DWIDTH 11 0
BBX 11 13 0 0
BITMAP
1F80
2A40
2BC0
2640
1C80
1300
2A00
4960
57A0
9CA0
ACE0
CE40
F380
ENDCHAR
STARTCHAR quotesingle
ENCODING 39
SWIDTH 246 0
DWIDTH 4 0
BBX 4 7 0 6
BITMAP
F0
50
50
B0
90
90
F0
ENDCHAR
STARTCHAR parenleft
ENCODING 40
SWIDTH 387 0
DWIDTH 7 0
BBX 7 15 0 -1
BITMAP
18
14
24
28
58
48
90
A0
F0
48
58
24
12
12
0C
ENDCHAR
STARTCHAR parenright
ENCODING 41
SWIDTH 386 0
DWIDTH 7 0
BBX 7 15 0 -1
BITMAP
30
50
48
28
34
24
12
0A
1E
24
38
48
90
90
60
ENDCHAR
STARTCHAR asterisk
ENCODING 42
SWIDTH 517 0
DWIDTH 9 0
BBX 9 8 0 5
BITMAP
1C00
1400
7580
9E80
6300
3E00
3500
7700
ENDCHAR
STARTCHAR plus
ENCODING 43
SWIDTH 458 0
DWIDTH 8 0
BBX 8 8 0 2
BITMAP
18
24
77
89
89
7E
24
18
ENDCHAR
STARTCHAR comma
ENCODING 44
SWIDTH 228 0
DWIDTH 4 0
BBX 4 4 0 -2
BITMAP
70
90
A0
C0
ENDCHAR
STARTCHAR hyphen
ENCODING 45
SWIDTH 465 0
DWIDTH 8 0
BBX 8 4 0 4
BITMAP
7F
89
89
7E
ENDCHAR
STARTCHAR period
ENCODING 46
SWIDTH 202 0
DWIDTH 4 0
BBX 3 3 0 0
BITMAP
60
A0
E0
ENDCHAR
STARTCHAR slash
ENCODING 47
SWIDTH 453 0
DWIDTH 8 0
BBX 8 12 0 0
BITMAP
0F
09
0A
1A
16
24
24
58
48
90
90
60
ENDCHAR
STARTCHAR zero
ENCODING 48
SWIDTH 646 0
DWIDTH 12 0
BBX 12 13 0 0
BITMAP
0C00
1200
2500
3480
4B40
9120
E090
9190
CB60
3480
2880
1900
0E00
ENDCHAR
STARTCHAR one
ENCODING 49
SWIDTH 400 0
DWIDTH 7 0
BBX 7 13 0 0
BITMAP
1C
32
52
92
BE
52
12
12
1E
12
12
12
1E
ENDCHAR
STARTCHAR two
ENCODING 50
SWIDTH 502 0
DWIDTH 9 0
BBX 9 12 0 0
BITMAP
1E00
2600
C900
9480
6780
0880
1900
2600
4400
4F00
B880
FF80
ENDCHAR
STARTCHAR three
ENCODING 51
SWIDTH 456 0
DWIDTH 8 0
BBX 8 12 0 0
BITMAP
FC
82
7D
12
2C
58
66
13
1D
E9
8E
F0
ENDCHAR
STARTCHAR four
ENCODING 52
SWIDTH 514 0
DWIDTH 9 0
BBX 9 12 0 0
BITMAP
1F80
1300
2500
5F00
4900
9F80
A480
E680
3D00
0500
0500
0F00
ENDCHAR
STARTCHAR five
ENCODING 53
SWIDTH 500 0
DWIDTH 9 0
BBX 9 13 0 0
BITMAP
2300
DD00
5880
5F00
5000
7F00
4B00
7C80
0280
4480
BF80
8900
FF00
ENDCHAR
STARTCHAR six
ENCODING 54
SWIDTH 520 0
DWIDTH 9 0
BBX 10 14 0 -1
BITMAP
1800
2400
2400
2800
3800
4C00
4A00
5300
7CC0
9740
9880
9300
6C00
1000
ENDCHAR
STARTCHAR seven
ENCODING 55
SWIDTH 423 0
DWIDTH 8 0
BBX 8 12 0 0
BITMAP
FF
91
FE
0A
16
12
14
2C
24
28
48
38
ENDCHAR
STARTCHAR eight
ENCODING 56
SWIDTH 527 0
DWIDTH 10 0
BBX 9 12 0 0
BITMAP
7F80
8780
FC80
4C80
3500
2500
3200
4D00
4900
9C80
A280
7F80
ENDCHAR
STARTCHAR nine
ENCODING 57
SWIDTH 500 0
DWIDTH 9 0
BBX 9 13 0 0
BITMAP
0200
1D00
E980
8E80
B500
DB00
4900
3200
1A00
1600
2400
2400
3800
ENDCHAR
STARTCHAR colon
ENCODING 58
SWIDTH 245 0
DWIDTH 4 0
BBX 3 9 1 0
BITMAP
E0
A0
40
00
00
00
C0
A0
E0
ENDCHAR
STARTCHAR semicolon
ENCODING 59
SWIDTH 270 0
DWIDTH 5 0
BBX 4 11 0 -2
BITMAP
70
50
20
00
00
00
20
50
50
A0
E0
ENDCHAR
STARTCHAR less
ENCODING 60
SWIDTH 445 0
DWIDTH 8 0
BBX 7 10 0 1
BITMAP
06
1A
6A
84
98
E8
CC
32
0A
04
ENDCHAR
STARTCHAR equal
ENCODING 61
SWIDTH 484 0
DWIDTH 9 0
BBX 7 8 1 2
BITMAP
FE
92
FE
00
FE
92
92
EC
ENDCHAR
STARTCHAR greater
ENCODING 62
SWIDTH 445 0
DWIDTH 8 0
BBX 7 10 1 1
BITMAP
C0
B0
AC
42
32
2E
66
98
A0
40
ENDCHAR
STARTCHAR question
ENCODING 63
SWIDTH 455 0
DWIDTH 8 0
BBX 8 13 0 0
BITMAP
60
98
8F
69
1D
23
64
58
48
30
30
50
70
ENDCHAR
STARTCHAR at
ENCODING 64
SWIDTH 812 0
DWIDTH 15 0
BBX 13 14 1 -1
BITMAP
7FE0
8950
FFD0
BFF0
FAD0
B7A8
B578
AD68
F2E8
B268
AFF0
BE00
F200
0C00
ENDCHAR
STARTCHAR A
ENCODING 65
SWIDTH 507 0
DWIDTH 9 0
BBX 9 13 0 0
BITMAP
1800
2400
2600
2A00
3A00
4E00
4900
5780
7C80
9480
9F80
9280
E380
ENDCHAR
STARTCHAR B
ENCODING 66
SWIDTH 533 0
DWIDTH 10 0
BBX 9 14 0 -1
BITMAP
3C00
4300
6480
5880
7780
5880
5700
5500
6880
5E80
7580
4600
C800
3000
ENDCHAR
STARTCHAR C
ENCODING 67
SWIDTH 515 0
DWIDTH 9 0
BBX 9 13 0 0
BITMAP
3800
4780
4480
3F80
7800
4800
5000
5000
7000
9380
9C80
9480
7F00
ENDCHAR
STARTCHAR D
ENCODING 68
SWIDTH 520 0
DWIDTH 9 0
BBX 10 13 0 0
BITMAP
3800
4400
6200
5200
6D80
5440
5280
5340
6C80
5300
5200
9400
7800
ENDCHAR
STARTCHAR E
ENCODING 69
SWIDTH 490 0
DWIDTH 9 0
BBX 9 13 0 0
BITMAP
2900
5680
5480
5F00
7000
5E00
5200
5A00
7400
5900
5680
9480
7F00
ENDCHAR
STARTCHAR F
ENCODING 70
SWIDTH 475 0
DWIDTH 9 0
BBX 9 13 0 0
BITMAP
2900
5680
5480
5F00
7000
5E00
5200
5A00
7400
5000
5000
9000
7000
ENDCHAR
STARTCHAR G
ENCODING 71
SWIDTH 557 0
DWIDTH 10 0
BBX 10 13 0 0
BITMAP
3800
4780
4480
3F80
7800
4980
5240
5240
7240
93C0
9E40
9640
7FC0
ENDCHAR
STARTCHAR H
ENCODING 72
SWIDTH 611 0
DWIDTH 11 0
BBX 11 13 0 0
BITMAP
2180
5240
5140
5140
71C0
5240
5160
57A0
6920
59C0
5E40
9240
71C0
ENDCHAR
STARTCHAR I
ENCODING 73
SWIDTH 266 0
DWIDTH 5 0
BBX 4 13 0 0
BITMAP
20
50
50
50
70
50
50
50
70
50
50
90
70
ENDCHAR
STARTCHAR J
ENCODING 74
SWIDTH 484 0
DWIDTH 9 0
BBX 8 14 0 -1
BITMAP
02
05
05
05
07
05
45
A5
97
59
65
23
17
08
ENDCHAR
STARTCHAR K
ENCODING 75
SWIDTH 541 0
DWIDTH 10 0
BBX 10 13 0 0
BITMAP
2000
5180
5240
5480
7A80
5100
5200
5500
7D00
5680
5480
9240
7380
ENDCHAR
STARTCHAR L
ENCODING 76
SWIDTH 467 0
DWIDTH 8 0
BBX 9 13 0 0
BITMAP
2000
5000
5000
5000
7000
5000
5000
5000
7000
5000
5F80
9880
7F00
ENDCHAR
STARTCHAR M
ENCODING 77
SWIDTH 733 0
DWIDTH 13 0
BBX 13 13 0 0
BITMAP
18C0
24A0
2CB0
4D20
7DB0
4E30
4A50
4A50
BBC8
95B8
94A8
94A8
E738
ENDCHAR
STARTCHAR N
ENCODING 78
SWIDTH 598 0
DWIDTH 11 0
BBX 10 13 0 0
BITMAP
3080
4940
5940
5540
6DC0
5240
5240
5940
77C0
5540
54C0
9240
73C0
ENDCHAR
STARTCHAR O
ENCODING 79
SWIDTH 612 0
DWIDTH 11 0
BBX 11 13 0 0
BITMAP
3800
47C0
4440
3FC0
79C0
4940
5140
5140
71C0
93A0
9C40
9460
7FC0
ENDCHAR
STARTCHAR P
ENCODING 80
SWIDTH 513 0
DWIDTH 9 0
BBX 9 13 0 0
BITMAP
3800
4600
6580
5C80
7380
5C80
5500
5200
7400
5800
5000
9000
F000
ENDCHAR
STARTCHAR Q
ENCODING 81
SWIDTH 612 0
DWIDTH 11 0
BBX 11 16 0 -3
BITMAP
3800
47C0
4440
3FC0
79C0
4940
5140
5140
71C0
93A0
9C40
9460
7FC0
2A00
0900
0600
ENDCHAR
STARTCHAR R
ENCODING 82
SWIDTH 532 0
DWIDTH 10 0
BBX 10 13 0 0
BITMAP
3000
4E00
4580
7840
7680
5580
5F00
5A00
7500
5E80
5480
9240
F380
ENDCHAR
STARTCHAR S
ENCODING 83
SWIDTH 442 0
DWIDTH 8 0
BBX 8 13 0 0
BITMAP
1E
E9
9F
98
48
38
24
12
1E
0A
F9
95
FA
ENDCHAR
STARTCHAR T
ENCODING 84
SWIDTH 453 0
DWIDTH 8 0
BBX 8 13 0 0
BITMAP
FF
89
89
F7
24
3C
24
24
3C
24
24
24
3C
ENDCHAR
STARTCHAR U
ENCODING 85
SWIDTH 583 0
DWIDTH 11 0
BBX 10 14 0 -1
BITMAP
3180
4A40
4A40
5240
73C0
5240
5240
5240
B1C0
93C0
9C40
94C0
7FC0
2000
ENDCHAR
STARTCHAR V
ENCODING 86
SWIDTH 506 0
DWIDTH 9 0
BBX 9 12 0 0
BITMAP
F380
9280
9280
B680
5500
5500
4900
5F00
2A00
2A00
3200
3E00
ENDCHAR
STARTCHAR W
ENCODING 87
SWIDTH 735 0
DWIDTH 13 0
BBX 13 12 0 0
BITMAP
E278
9548
94C8
B4E8
5BD8
5A50
4A50
57F0
2B90
33A0
3320
3CE0
ENDCHAR
STARTCHAR X
ENCODING 88
SWIDTH 483 0
DWIDTH 9 0
BBX 9 12 0 0
BITMAP
6700
9480
5900
4A00
3600
2400
2600
5A00
4900
9500
9480
6300
ENDCHAR
STARTCHAR Y
ENCODING 89
SWIDTH 484 0
DWIDTH 9 0
BBX 9 12 0 0
BITMAP
E380
A480
9480
7F00
4900
2A00
1200
1C00
2400
2400
4800
3800
ENDCHAR
STARTCHAR Z
ENCODING 90
SWIDTH 458 0
DWIDTH 8 0
BBX 8 13 0 0
BITMAP
32
4D
49
7F
1A
16
24
24
58
4A
9D
A9
7E
ENDCHAR
STARTCHAR bracketleft
ENCODING 91
SWIDTH 420 0
DWIDTH 8 0
BBX 7 15 0 -1
BITMAP
0E
72
96
58
50
F0
90
50
50
70
90
90
9E
92
7E
ENDCHAR
STARTCHAR backslash
ENCODING 92
SWIDTH 453 0
DWIDTH 8 0
BBX 8 12 0 0
BITMAP
70
90
48
58
28
24
14
1A
12
09
09
06
ENDCHAR
STARTCHAR bracketright
ENCODING 93
SWIDTH 420 0
DWIDTH 8 0
BBX 7 15 0 -1
BITMAP
60
9C
D2
32
0A
1E
12
0A
0A
16
0A
0A
F2
92
FC
ENDCHAR
STARTCHAR asciicircum
ENCODING 94
SWIDTH 353 0
DWIDTH 6 0
BBX 6 5 0 7
BITMAP
30
48
58
B4
48
ENDCHAR
STARTCHAR underscore
ENCODING 95
SWIDTH 499 0
DWIDTH 9 0
BBX 7 4 1 -5
BITMAP
FE
92
92
FE
ENDCHAR
STARTCHAR grave
ENCODING 96
SWIDTH 183 0
DWIDTH 3 0
BBX 3 4 0 14
BITMAP
40
A0
A0
60
ENDCHAR
STARTCHAR a
ENCODING 97
SWIDTH 507 0
DWIDTH 9 0
BBX 9 13 0 0
BITMAP
1800
2400
2600
2A00
3A00
4E00
4900
5780
7C80
9480
9F80
9280
E380
ENDCHAR
STARTCHAR b
ENCODING 98
SWIDTH 533 0
DWIDTH 10 0
BBX 9 14 0 -1
BITMAP
3C00
4300
6480
5880
7780
5880
5700
5500
6880
5E80
7580
4600
C800
3000
ENDCHAR
STARTCHAR c
ENCODING 99
SWIDTH 515 0
DWIDTH 9 0
BBX 9 13 0 0
BITMAP
3800
4780
4480
3F80
7800
4800
5000
5000
7000
9380
9C80
9480
7F00
ENDCHAR
STARTCHAR d
ENCODING 100
SWIDTH 520 0
DWIDTH 9 0
BBX 10 13 0 0
BITMAP
3800
4400
6200
5200
6D80
5440
5280
5340
6C80
5300
5200
9400
7800
ENDCHAR
STARTCHAR e
ENCODING 101
SWIDTH 490 0
DWIDTH 9 0
BBX 9 13 0 0
BITMAP
2900
5680
5480
5F00
7000
5E00
5200
5A00
7400
5900
5680
9480
7F00
ENDCHAR
STARTCHAR f
ENCODING 102
SWIDTH 475 0
DWIDTH 9 0
BBX 9 13 0 0
BITMAP
2900
5680
5480
5F00
7000
5E00
5200
5A00
7400
5000
5000
9000
7000
ENDCHAR
STARTCHAR g
ENCODING 103
SWIDTH 557 0
DWIDTH 10 0
BBX 10 13 0 0
BITMAP
3800
4780
4480
3F80
7800
4980
5240
5240
7240
93C0
9E40
9640
7FC0
ENDCHAR
STARTCHAR h
ENCODING 104
SWIDTH 611 0
DWIDTH 11 0
BBX 11 13 0 0
BITMAP
2180
5240
5140
5140
71C0
5240
5160
57A0
6920
59C0
5E40
9240
71C0
ENDCHAR
STARTCHAR i
ENCODING 105
SWIDTH 266 0
DWIDTH 5 0
BBX 4 13 0 0
BITMAP
20
50
50
50
70
50
50
50
70
50
50
90
70
ENDCHAR
STARTCHAR j
ENCODING 106
SWIDTH 482 0
DWIDTH 9 0
BBX 8 14 0 -1
BITMAP
02
05
05
05
07
05
45
A5
97
59
65
23
17
08
ENDCHAR
STARTCHAR k
ENCODING 107
SWIDTH 541 0
DWIDTH 10 0
BBX 10 13 0 0
BITMAP
2000
5180
5240
5480
7A80
5100
5200
5500
7D00
5680
5480
9240
7380
ENDCHAR
STARTCHAR l
ENCODING 108
SWIDTH 467 0
DWIDTH 8 0
BBX 9 13 0 0
BITMAP
2000
5000
5000
5000
7000
5000
5000
5000
7000
5000
5F80
9880
7F00
ENDCHAR
STARTCHAR m
ENCODING 109
SWIDTH 733 0
DWIDTH 13 0
BBX 13 13 0 0
BITMAP
18C0
24A0
2CB0
4D20
7DB0
4E30
4A50
4A50
BBC8
95B8
94A8
94A8
E738
ENDCHAR
STARTCHAR n
ENCODING 110
SWIDTH 598 0
DWIDTH 11 0
BBX 10 13 0 0
BITMAP
3080
4940
5940
5540
6DC0
5240
5240
5940
77C0
5540
54C0
9240
73C0
ENDCHAR
STARTCHAR o
ENCODING 111
SWIDTH 612 0
DWIDTH 11 0
BBX 11 13 0 0
BITMAP
3800
47C0
4440
3FC0
79C0
4940
5140
5140
71C0
93A0
9C40
9460
7FC0
ENDCHAR
STARTCHAR p
ENCODING 112
SWIDTH 513 0
DWIDTH 9 0
BBX 9 13 0 0
BITMAP
3800
4600
6580
5C80
7380
5C80
5500
5200
7400
5800
5000
9000
F000
ENDCHAR
STARTCHAR q
ENCODING 113
SWIDTH 612 0
DWIDTH 11 0
BBX 11 16 0 -3
BITMAP
3800
47C0
4440
3FC0
79C0
4940
5140
5140
71C0
93A0
9C40
9460
7FC0
2A00
0900
0600
ENDCHAR
STARTCHAR r
ENCODING 114
SWIDTH 532 0
DWIDTH 10 0
BBX 10 13 0 0
BITMAP
3000
4E00
4580
7840
7680
5580
5F00
5A00
7500
5E80
5480
9240
F380
ENDCHAR
STARTCHAR s
ENCODING 115
SWIDTH 442 0
DWIDTH 8 0
BBX 8 13 0 0
BITMAP
1E
E9
9F
98
48
38
24
12
1E
0A
F9
95
FA
ENDCHAR
STARTCHAR t
ENCODING 116
SWIDTH 453 0
DWIDTH 8 0
BBX 8 13 0 0
BITMAP
FF
89
89
F7
24
3C
24
24
3C
24
24
24
3C
ENDCHAR
STARTCHAR u
ENCODING 117
SWIDTH 583 0
DWIDTH 11 0
BBX 10 14 0 -1
BITMAP
3180
4A40
4A40
5240
73C0
5240
5240
5240
B1C0
93C0
9C40
94C0
7FC0
2000
ENDCHAR
STARTCHAR v
ENCODING 118
SWIDTH 506 0
DWIDTH 9 0
BBX 9 12 0 0
BITMAP
F380
9280
9280
B680
5500
5500
4900
5F00
2A00
2A00
3200
3E00
ENDCHAR
STARTCHAR w
ENCODING 119
SWIDTH 735 0
DWIDTH 13 0
BBX 13 12 0 0
BITMAP
E278
9548
94C8
B4E8
5BD8
5A50
4A50
57F0
2B90
33A0
3320
3CE0
ENDCHAR
STARTCHAR x
ENCODING 120
SWIDTH 483 0
DWIDTH 9 0
BBX 9 12 0 0
BITMAP
6700
9480
5900
4A00
3600
2400
2600
5A00
4900
9500
9480
6300
ENDCHAR
STARTCHAR y
ENCODING 121
SWIDTH 484 0
DWIDTH 9 0
BBX 9 12 0 0
BITMAP
E380
A480
9480
7F00
4900
2A00
1200
1C00
2400
2400
4800
3800
ENDCHAR
STARTCHAR z
ENCODING 122
SWIDTH 458 0
DWIDTH 8 0
BBX 8 13 0 0
BITMAP
32
4D
49
7F
1A
16
24
24
58
4A
9D
A9
7E
ENDCHAR
STARTCHAR braceleft
ENCODING 123
SWIDTH 473 0
DWIDTH 9 0
BBX 8 15 0 -1
BITMAP
03
3D
29
26
1C
14
FE
84
FA
14
2C
24
4F
69
1F
ENDCHAR
STARTCHAR bar
ENCODING 124
SWIDTH 263 0
DWIDTH 5 0
BBX 4 15 0 -1
BITMAP
60
50
50
50
50
B0
50
50
50
70
50
50
50
90
70
ENDCHAR
STARTCHAR braceright
ENCODING 125
SWIDTH 473 0
DWIDTH 9 0
BBX 9 15 0 -1
BITMAP
6000
9C00
D200
3400
2C00
2400
5F80
2080
3F00
2400
2C00
1200
7200
9200
FC00
ENDCHAR
STARTCHAR asciitilde
ENCODING 126
SWIDTH 456 0
DWIDTH 8 0
BBX 8 5 0 4
BITMAP
37
4D
56
B4
48
ENDCHAR
STARTCHAR nonbreakingspace
ENCODING 160
SWIDTH 200 0
DWIDTH 4 0
BBX 1 1 0 0
BITMAP
00
ENDCHAR
STARTCHAR exclamdown
ENCODING 161
SWIDTH 259 0
DWIDTH 5 0
BBX 4 12 0 0
BITMAP
70
50
20
70
50
50
50
F0
50
50
90
F0
ENDCHAR
STARTCHAR cent
ENCODING 162
SWIDTH 480 0
DWIDTH 9 0
BBX 8 16 0 -2
BITMAP
1C
14
16
19
65
C6
B8
F0
90
90
9C
67
19
17
14
1C
ENDCHAR
STARTCHAR sterling
ENCODING 163
SWIDTH 594 0
DWIDTH 11 0
BBX 10 12 0 0
BITMAP
1F00
1080
1880
1780
5F00
A500
A500
7F00
2440
27C0
2640
3FC0
ENDCHAR
STARTCHAR currency
ENCODING 164
SWIDTH 640 0
DWIDTH 12 0
BBX 11 10 0 2
BITMAP
6440
9BA0
D520
2CC0
26A0
4920
5740
72C0
8AA0
77E0
ENDCHAR
STARTCHAR yen
ENCODING 165
SWIDTH 575 0
DWIDTH 10 0
BBX 10 12 0 0
BITMAP
6180
9240
4A40
3E80
2580
3500
4E80
4480
7B80
1400
2400
1C00
ENDCHAR
STARTCHAR brokenbar
ENCODING 166
SWIDTH 258 0
DWIDTH 5 0
BBX 3 16 1 -2
BITMAP
E0
A0
A0
E0
A0
A0
A0
40
40
A0
A0
E0
A0
A0
A0
E0
ENDCHAR
STARTCHAR section
ENCODING 167
SWIDTH 474 0
DWIDTH 9 0
BBX 7 13 1 0
BITMAP
7C
92
D6
B8
A6
7A
AA
B4
EC
62
DA
96
FC
ENDCHAR
STARTCHAR dieresis
ENCODING 168
SWIDTH 351 0
DWIDTH 6 0
BBX 6 3 0 13
BITMAP
FC
B4
48
ENDCHAR
STARTCHAR copyright
ENCODING 169
SWIDTH 719 0
DWIDTH 13 0
BBX 12 13 0 0
BITMAP
7FF0
44D0
7FD0
6730
58B0
AFD0
6C30
DD70
BAD0
6750
AFF0
9910
7FF0
ENDCHAR
STARTCHAR ordfeminine
ENCODING 170
SWIDTH 455 0
DWIDTH 8 0
BBX 8 12 0 0
BITMAP
3E
32
52
6A
5D
79
C5
BD
62
5E
42
7E
ENDCHAR
STARTCHAR guillemotleft
ENCODING 171
SWIDTH 689 0
DWIDTH 12 0
BBX 12 8 0 2
BITMAP
1C70
6590
8A20
9240
EBA0
6590
1450
0820
ENDCHAR
STARTCHAR logicalnot
ENCODING 172
SWIDTH 591 0
DWIDTH 11 0
BBX 10 6 0 1
BITMAP
FFC0
8540
7F40
0140
0140
01C0
ENDCHAR
STARTCHAR uni00AD
ENCODING 173
SWIDTH 465 0
DWIDTH 8 0
BBX 8 4 0 4
BITMAP
7F
89
89
7E
ENDCHAR
STARTCHAR registered
ENCODING 174
SWIDTH 719 0
DWIDTH 13 0
BBX 12 13 0 0
BITMAP
7FF0
44D0
7FD0
6030
5F30
AED0
6B30
DA70
BA50
6C50
AFF0
9910
7FF0
ENDCHAR
STARTCHAR macron
ENCODING 175
SWIDTH 263 0
DWIDTH 5 0
BBX 5 2 0 14
BITMAP
F0
F8
ENDCHAR
STARTCHAR degree
ENCODING 176
SWIDTH 333 0
DWIDTH 6 0
BBX 6 5 0 7
BITMAP
78
58
B4
48
F8
ENDCHAR
STARTCHAR plusminus
ENCODING 177
SWIDTH 464 0
DWIDTH 8 0
BBX 8 12 0 -2
BITMAP
18
14
77
89
89
7E
14
18
40
BF
89
7F
ENDCHAR
STARTCHAR twosuperior
ENCODING 178
SWIDTH 324 0
DWIDTH 6 0
BBX 5 6 0 6
BITMAP
F8
D8
28
50
98
78
ENDCHAR
STARTCHAR threesuperior
ENCODING 179
SWIDTH 332 0
DWIDTH 6 0
BBX 6 7 0 5
BITMAP
F8
88
74
54
64
98
70
ENDCHAR
STARTCHAR acute
ENCODING 180
SWIDTH 202 0
DWIDTH 4 0
BBX 4 4 0 13
BITMAP
70
60
A0
40
ENDCHAR
STARTCHAR mu
ENCODING 181
SWIDTH 582 0
DWIDTH 10 0
BBX 10 14 0 -2
BITMAP
7BC0
4A80
5240
53C0
6A40
5240
5240
53C0
51C0
6E40
5440
5FC0
9080
F000
ENDCHAR
STARTCHAR paragraph
ENCODING 182
SWIDTH 556 0
DWIDTH 10 0
BBX 9 13 0 0
BITMAP
0700
1980
F180
8E80
B380
CA80
6E80
1280
0B80
0480
0280
0280
0780
ENDCHAR
STARTCHAR periodcentered
ENCODING 183
SWIDTH 215 0
DWIDTH 4 0
BBX 3 3 0 5
BITMAP
E0
A0
60
ENDCHAR
STARTCHAR cedilla
ENCODING 184
SWIDTH 237 0
DWIDTH 4 0
BBX 4 5 0 -4
BITMAP
30
30
70
90
E0
ENDCHAR
STARTCHAR onesuperior
ENCODING 185
SWIDTH 286 0
DWIDTH 5 0
BBX 5 8 0 5
BITMAP
10
68
98
A8
68
28
28
10
ENDCHAR
STARTCHAR ordmasculine
ENCODING 186
SWIDTH 476 0
DWIDTH 9 0
BBX 8 12 0 0
BITMAP
FF
8F
7D
95
95
9F
69
B7
48
7E
42
3E
ENDCHAR
STARTCHAR guillemotright
ENCODING 187
SWIDTH 689 0
DWIDTH 12 0
BBX 11 8 1 2
BITMAP
E380
9440
CB20
28A0
5960
9640
A480
4300
ENDCHAR
STARTCHAR onequarter
ENCODING 188
SWIDTH 790 0
DWIDTH 14 0
BBX 14 13 0 0
BITMAP
1000
2B80
DA80
AA80
6A80
2D80
2D10
1528
0754
05BC
0AA4
0A5C
041C
ENDCHAR
STARTCHAR onehalf
ENCODING 189
SWIDTH 771 0
DWIDTH 14 0
BBX 13 13 0 0
BITMAP
1000
2B80
DA80
AA80
6A80
2D80
2D78
1588
0778
0528
0A50
0AA8
0478
ENDCHAR
STARTCHAR threequarters
ENCODING 190
SWIDTH 817 0
DWIDTH 15 0
BBX 14 12 0 0
BITMAP
FDC0
8940
7540
5780
6680
9A98
72A4
054C
059C
0564
057C
020C
ENDCHAR
STARTCHAR questiondown
ENCODING 191
SWIDTH 455 0
DWIDTH 8 0
BBX 8 13 0 0
BITMAP
04
0A
0A
04
0E
0A
16
24
EC
9C
93
71
0F
ENDCHAR
STARTCHAR Agrave
ENCODING 192
SWIDTH 507 0
DWIDTH 9 0
BBX 9 18 0 0
BITMAP
1800
2800
1800
1400
0800
1800
2400
2600
2A00
3A00
4E00
4900
5780
7C80
9480
9F80
9280
E380
ENDCHAR
STARTCHAR Aacute
ENCODING 193
SWIDTH 507 0
DWIDTH 9 0
BBX 9 17 0 0
BITMAP
0700
0600
0A00
0400
1800
2400
2600
2A00
3A00
4E00
4900
5780
7C80
9480
9F80
9280
E380
ENDCHAR
STARTCHAR Acircumflex
ENCODING 194
SWIDTH 507 0
DWIDTH 9 0
BBX 9 18 0 0
BITMAP
1C00
1400
2A00
3500
0200
1800
2400
2600
2A00
3A00
4E00
4900
5780
7C80
9480
9F80
9280
E380
ENDCHAR
STARTCHAR Atilde
ENCODING 195
SWIDTH 507 0
DWIDTH 9 0
BBX 9 17 0 0
BITMAP
1B80
2C80
5500
5A00
3C00
2400
2600
2A00
3A00
4E00
4900
5780
7C80
9480
9F80
9280
E380
ENDCHAR
STARTCHAR Adieresis
ENCODING 196
SWIDTH 507 0
DWIDTH 9 0
BBX 9 16 0 0
BITMAP
7F00
2D00
3200
1800
2400
2600
2A00
3A00
4E00
4900
5780
7C80
9480
9F80
9280
E380
ENDCHAR
STARTCHAR Aring
ENCODING 197
SWIDTH 507 0
DWIDTH 9 0
BBX 9 18 0 0
BITMAP
1C00
1600
2A00
3D00
2600
1800
2400
2600
2A00
3A00
4E00
4900
5780
7C80
9480
9F80
9280
E380
ENDCHAR
STARTCHAR AE
ENCODING 198
SWIDTH 797 0
DWIDTH 14 0
BBX 14 13 0 0
BITMAP
019C
0E64
0964
127C
1BC0
2270
2648
4E68
7BD0
9260
9E7C
A264
63BC
ENDCHAR
STARTCHAR Ccedilla
ENCODING 199
SWIDTH 515 0
DWIDTH 9 0
BBX 9 17 0 -4
BITMAP
3800
4780
4480
3F80
7800
4800
5000
5000
7000
9380
9C80
9480
7F00
2A00
1A00
2600
1800
ENDCHAR
STARTCHAR Egrave
ENCODING 200
SWIDTH 490 0
DWIDTH 9 0
BBX 9 18 0 0
BITMAP
1800
2800
1400
1400
0800
2900
5680
5480
5F00
7000
5E00
5200
5A00
7400
5900
5680
9480
7F00
ENDCHAR
STARTCHAR Eacute
ENCODING 201
SWIDTH 490 0
DWIDTH 9 0
BBX 9 17 0 0
BITMAP
0600
0A00
1400
0800
2900
5680
5480
5F00
7000
5E00
5200
5A00
7400
5900
5680
9480
7F00
ENDCHAR
STARTCHAR Ecircumflex
ENCODING 202
SWIDTH 490 0
DWIDTH 9 0
BBX 9 18 0 0
BITMAP
1C00
1400
2A00
3500
0200
2900
5680
5480
5F00
7000
5E00
5200
5A00
7400
5900
5680
9480
7F00
ENDCHAR
STARTCHAR Edieresis
ENCODING 203
SWIDTH 490 0
DWIDTH 9 0
BBX 9 16 0 0
BITMAP
7F00
3500
2200
2900
5680
5480
5F00
7000
5E00
5200
5A00
7400
5900
5680
9480
7F00
ENDCHAR
STARTCHAR Igrave
ENCODING 204
SWIDTH 266 0
DWIDTH 5 0
BBX 4 18 0 0
BITMAP
40
A0
A0
60
00
20
50
50
50
70
50
50
50
70
50
50
90
70
ENDCHAR
STARTCHAR Iacute
ENCODING 205
SWIDTH 266 0
DWIDTH 5 0
BBX 5 17 0 0
BITMAP
18
28
30
10
20
50
50
50
70
50
50
50
70
50
50
90
70
ENDCHAR
STARTCHAR Icircumflex
ENCODING 206
SWIDTH 266 0
DWIDTH 5 0
BBX 5 18 0 0
BITMAP
70
50
A8
D8
08
20
50
50
50
70
50
50
50
70
50
50
90
70
ENDCHAR
STARTCHAR Idieresis
ENCODING 207
SWIDTH 266 0
DWIDTH 5 0
BBX 7 16 -1 0
BITMAP
FE
AA
44
10
28
28
28
38
28
28
28
38
28
28
48
38
ENDCHAR
STARTCHAR Eth
ENCODING 208
SWIDTH 669 0
DWIDTH 12 0
BBX 12 13 0 0
BITMAP
0F00
1900
0C80
1240
1FA0
FA90
8650
E6B0
1F10
12A0
1240
1280
1F00
ENDCHAR
STARTCHAR Ntilde
ENCODING 209
SWIDTH 598 0
DWIDTH 11 0
BBX 10 18 0 0
BITMAP
0DC0
1740
2580
2D00
1200
3080
4940
5940
5540
6DC0
5240
5240
5940
77C0
5540
54C0
9240
73C0
ENDCHAR
STARTCHAR Ograve
ENCODING 210
SWIDTH 612 0
DWIDTH 11 0
BBX 11 18 0 0
BITMAP
0C00
1400
0A00
0600
0000
3800
47C0
4440
3FC0
79C0
4940
5140
5140
71C0
93A0
9C40
9460
7FC0
ENDCHAR
STARTCHAR Oacute
ENCODING 211
SWIDTH 612 0
DWIDTH 11 0
BBX 11 17 0 0
BITMAP
0380
0300
0500
0200
3800
47C0
4440
3FC0
79C0
4940
5140
5140
71C0
93A0
9C40
9460
7FC0
ENDCHAR
STARTCHAR Ocircumflex
ENCODING 212
SWIDTH 612 0
DWIDTH 11 0
BBX 11 18 0 0
BITMAP
0E00
0A00
1500
1680
0900
3800
47C0
4440
3FC0
79C0
4940
5140
5140
71C0
93A0
9C40
9460
7FC0
ENDCHAR
STARTCHAR Otilde
ENCODING 213
SWIDTH 612 0
DWIDTH 11 0
BBX 11 18 0 0
BITMAP
0DC0
1340
1580
2D00
1200
3800
47C0
4440
3FC0
79C0
4940
5140
5140
71C0
93A0
9C40
9460
7FC0
ENDCHAR
STARTCHAR Odieresis
ENCODING 214
SWIDTH 612 0
DWIDTH 11 0
BBX 11 16 0 0
BITMAP
3F80
2B00
1000
3800
47C0
4440
3FC0
79C0
4940
5140
5140
71C0
93A0
9C40
9460
7FC0
ENDCHAR
STARTCHAR multiply
ENCODING 215
SWIDTH 421 0
DWIDTH 8 0
BBX 7 6 0 3
BITMAP
7E
92
4A
74
92
6E
ENDCHAR
STARTCHAR Oslash
ENCODING 216
SWIDTH 612 0
DWIDTH 11 0
BBX 11 14 0 -1
BITMAP
3880
4740
4540
3E40
7EC0
4940
4940
5340
7BC0
A7A0
A440
CC60
4FC0
3000
ENDCHAR
STARTCHAR Ugrave
ENCODING 217
SWIDTH 583 0
DWIDTH 11 0
BBX 10 19 0 -1
BITMAP
0800
1400
1400
0A00
0400
3180
4A40
4A40
5240
73C0
5240
5240
5240
B1C0
93C0
9C40
94C0
7FC0
2000
ENDCHAR
STARTCHAR Uacute
ENCODING 218
SWIDTH 583 0
DWIDTH 11 0
BBX 10 18 0 -1
BITMAP
0700
0500
0A00
0400
3180
4A40
4A40
5240
73C0
5240
5240
5240
B1C0
93C0
9C40
94C0
7FC0
2000
ENDCHAR
STARTCHAR Ucircumflex
ENCODING 219
SWIDTH 583 0
DWIDTH 11 0
BBX 10 19 0 -1
BITMAP
0C00
1200
1500
2D00
1200
3180
4A40
4A40
5240
73C0
5240
5240
5240
B1C0
93C0
9C40
94C0
7FC0
2000
ENDCHAR
STARTCHAR Udieresis
ENCODING 220
SWIDTH 583 0
DWIDTH 11 0
BBX 10 17 0 -1
BITMAP
3F80
2D00
1200
3180
4A40
4A40
5240
73C0
5240
5240
5240
B1C0
93C0
9C40
94C0
7FC0
2000
ENDCHAR
STARTCHAR Yacute
ENCODING 221
SWIDTH 484 0
DWIDTH 9 0
BBX 9 16 0 0
BITMAP
0600
0A00
1400
0800
E380
A480
9480
7F00
4900
2A00
1200
1C00
2400
2400
4800
3800
ENDCHAR
STARTCHAR Thorn
ENCODING 222
SWIDTH 520 0
DWIDTH 9 0
BBX 9 12 0 0
BITMAP
7000
7800
4600
6580
5C80
5380
5C80
7500
5200
5400
9800
F000
ENDCHAR
STARTCHAR germandbls
ENCODING 223
SWIDTH 884 0
DWIDTH 16 0
BBX 16 13 0 0
BITMAP
1E16
E9E9
9F9F
9898
4848
3838
2424
1214
1E1A
0A0A
F9F9
9515
FAFA
ENDCHAR
STARTCHAR agrave
ENCODING 224
SWIDTH 507 0
DWIDTH 9 0
BBX 9 18 0 0
BITMAP
1800
2800
1800
1400
0800
1800
2400
2600
2A00
3A00
4E00
4900
5780
7C80
9480
9F80
9280
E380
ENDCHAR
STARTCHAR aacute
ENCODING 225
SWIDTH 507 0
DWIDTH 9 0
BBX 9 17 0 0
BITMAP
0700
0600
0A00
0400
1800
2400
2600
2A00
3A00
4E00
4900
5780
7C80
9480
9F80
9280
E380
ENDCHAR
STARTCHAR acircumflex
ENCODING 226
SWIDTH 507 0
DWIDTH 9 0
BBX 9 18 0 0
BITMAP
1C00
1400
2A00
3500
0200
1800
2400
2600
2A00
3A00
4E00
4900
5780
7C80
9480
9F80
9280
E380
ENDCHAR
STARTCHAR atilde
ENCODING 227
SWIDTH 507 0
DWIDTH 9 0
BBX 9 17 0 0
BITMAP
1B80
2C80
5500
5A00
3C00
2400
2600
2A00
3A00
4E00
4900
5780
7C80
9480
9F80
9280
E380
ENDCHAR
STARTCHAR adieresis
ENCODING 228
SWIDTH 507 0
DWIDTH 9 0
BBX 9 16 0 0
BITMAP
7F00
2D00
3200
1800
2400
2600
2A00
3A00
4E00
4900
5780
7C80
9480
9F80
9280
E380
ENDCHAR
STARTCHAR aring
ENCODING 229
SWIDTH 507 0
DWIDTH 9 0
BBX 9 18 0 0
BITMAP
1C00
1600
2A00
3D00
2600
1800
2400
2600
2A00
3A00
4E00
4900
5780
7C80
9480
9F80
9280
E380
ENDCHAR
STARTCHAR ae
ENCODING 230
SWIDTH 797 0
DWIDTH 14 0
BBX 14 13 0 0
BITMAP
019C
0E64
0964
127C
1BC0
2270
2648
4E68
7BD0
9260
9E7C
A264
63BC
ENDCHAR
STARTCHAR ccedilla
ENCODING 231
SWIDTH 515 0
DWIDTH 9 0
BBX 9 17 0 -4
BITMAP
3800
4780
4480
3F80
7800
4800
5000
5000
7000
9380
9C80
9480
7F00
2A00
1A00
2600
1800
ENDCHAR
STARTCHAR egrave
ENCODING 232
SWIDTH 490 0
DWIDTH 9 0
BBX 9 18 0 0
BITMAP
1800
2800
1400
1400
0800
2900
5680
5480
5F00
7000
5E00
5200
5A00
7400
5900
5680
9480
7F00
ENDCHAR
STARTCHAR eacute
ENCODING 233
SWIDTH 490 0
DWIDTH 9 0
BBX 9 17 0 0
BITMAP
0600
0A00
1400
0800
2900
5680
5480
5F00
7000
5E00
5200
5A00
7400
5900
5680
9480
7F00
ENDCHAR
STARTCHAR ecircumflex
ENCODING 234
SWIDTH 490 0
DWIDTH 9 0
BBX 9 18 0 0
BITMAP
1C00
1400
2A00
3500
0200
2900
5680
5480
5F00
7000
5E00
5200
5A00
7400
5900
5680
9480
7F00
ENDCHAR
STARTCHAR edieresis
ENCODING 235
SWIDTH 490 0
DWIDTH 9 0
BBX 9 16 0 0
BITMAP
7F00
3500
2200
2900
5680
5480
5F00
7000
5E00
5200
5A00
7400
5900
5680
9480
7F00
ENDCHAR
STARTCHAR igrave
ENCODING 236
SWIDTH 266 0
DWIDTH 5 0
BBX 4 18 0 0
BITMAP
40
A0
A0
60
00
20
50
50
50
70
50
50
50
70
50
50
90
70
ENDCHAR
STARTCHAR iacute
ENCODING 237
SWIDTH 266 0
DWIDTH 5 0
BBX 5 17 0 0
BITMAP
18
28
30
10
20
50
50
50
70
50
50
50
70
50
50
90
70
ENDCHAR
STARTCHAR icircumflex
ENCODING 238
SWIDTH 266 0
DWIDTH 5 0
BBX 5 18 0 0
BITMAP
70
50
A8
D8
08
20
50
50
50
70
50
50
50
70
50
50
90
70
ENDCHAR
STARTCHAR idieresis
ENCODING 239
SWIDTH 266 0
DWIDTH 5 0
BBX 7 16 -1 0
BITMAP
FE
AA
44
10
28
28
28
38
28
28
28
38
28
28
48
38
ENDCHAR
STARTCHAR eth
ENCODING 240
SWIDTH 669 0
DWIDTH 12 0
BBX 12 13 0 0
BITMAP
0F00
1900
0C80
1240
1FA0
FA90
8650
E6B0
1F10
12A0
1240
1280
1F00
ENDCHAR
STARTCHAR ntilde
ENCODING 241
SWIDTH 598 0
DWIDTH 11 0
BBX 10 18 0 0
BITMAP
0DC0
1740
2580
2D00
1200
3080
4940
5940
5540
6DC0
5240
5240
5940
77C0
5540
54C0
9240
73C0
ENDCHAR
STARTCHAR ograve
ENCODING 242
SWIDTH 612 0
DWIDTH 11 0
BBX 11 18 0 0
BITMAP
0C00
1400
0A00
0600
0000
3800
47C0
4440
3FC0
79C0
4940
5140
5140
71C0
93A0
9C40
9460
7FC0
ENDCHAR
STARTCHAR oacute
ENCODING 243
SWIDTH 612 0
DWIDTH 11 0
BBX 11 17 0 0
BITMAP
0380
0300
0500
0200
3800
47C0
4440
3FC0
79C0
4940
5140
5140
71C0
93A0
9C40
9460
7FC0
ENDCHAR
STARTCHAR ocircumflex
ENCODING 244
SWIDTH 612 0
DWIDTH 11 0
BBX 11 18 0 0
BITMAP
0E00
0A00
1500
1680
0900
3800
47C0
4440
3FC0
79C0
4940
5140
5140
71C0
93A0
9C40
9460
7FC0
ENDCHAR
STARTCHAR otilde
ENCODING 245
SWIDTH 612 0
DWIDTH 11 0
BBX 11 18 0 0
BITMAP
0DC0
1340
1580
2D00
1200
3800
47C0
4440
3FC0
79C0
4940
5140
5140
71C0
93A0
9C40
9460
7FC0
ENDCHAR
STARTCHAR odieresis
ENCODING 246
SWIDTH 612 0
DWIDTH 11 0
BBX 11 16 0 0
BITMAP
3F80
2B00
1000
3800
47C0
4440
3FC0
79C0
4940
5140
5140
71C0
93A0
9C40
9460
7FC0
ENDCHAR
STARTCHAR divide
ENCODING 247
SWIDTH 457 0
DWIDTH 8 0
BBX 8 10 0 1
BITMAP
1C
14
18
7E
89
89
7E
18
14
1C
ENDCHAR
STARTCHAR oslash
ENCODING 248
SWIDTH 612 0
DWIDTH 11 0
BBX 11 14 0 -1
BITMAP
3880
4740
4540
3E40
7EC0
4940
4940
5340
7BC0
A7A0
A440
CC60
4FC0
3000
ENDCHAR
STARTCHAR ugrave
ENCODING 249
SWIDTH 583 0
DWIDTH 11 0
BBX 10 19 0 -1
BITMAP
0800
1400
1400
0A00
0400
3180
4A40
4A40
5240
73C0
5240
5240
5240
B1C0
93C0
9C40
94C0
7FC0
2000
ENDCHAR
STARTCHAR uacute
ENCODING 250
SWIDTH 583 0
DWIDTH 11 0
BBX 10 18 0 -1
BITMAP
0700
0500
0A00
0400
3180
4A40
4A40
5240
73C0
5240
5240
5240
B1C0
93C0
9C40
94C0
7FC0
2000
ENDCHAR
STARTCHAR ucircumflex
ENCODING 251
SWIDTH 583 0
DWIDTH 11 0
BBX 10 19 0 -1
BITMAP
0C00
1200
1500
2D00
1200
3180
4A40
4A40
5240
73C0
5240
5240
5240
B1C0
93C0
9C40
94C0
7FC0
2000
ENDCHAR
STARTCHAR udieresis
ENCODING 252
SWIDTH 583 0
DWIDTH 11 0
BBX 10 17 0 -1
BITMAP
3F80
2D00
1200
3180
4A40
4A40
5240
73C0
5240
5240
5240
B1C0
93C0
9C40
94C0
7FC0
2000
ENDCHAR
STARTCHAR yacute
ENCODING 253
SWIDTH 484 0
DWIDTH 9 0
BBX 9 16 0 0
BITMAP
0600
0A00
1400
0800
E380
A480
9480
7F00
4900
2A00
1200
1C00
2400
2400
4800
3800
ENDCHAR
STARTCHAR thorn
ENCODING 254
SWIDTH 520 0
DWIDTH 9 0
BBX 9 12 0 0
BITMAP
7000
7800
4600
6580
5C80
5380
5C80
7500
5200
5400
9800
F000
ENDCHAR
STARTCHAR ydieresis
ENCODING 255
SWIDTH 484 0
DWIDTH 9 0
BBX 9 15 0 0
BITMAP
7F00
5600
2000
E380
A480
9480
7F00
4900
2A00
1200
1C00
2400
2400
4800
3800
ENDCHAR
STARTCHAR Amacron
ENCODING 256
SWIDTH 507 0
DWIDTH 9 0
BBX 9 15 0 0
BITMAP
3E00
2200
1C00
2400
2600
2A00
3A00
4E00
4900
5780
7C80
9480
9F80
9280
E380
ENDCHAR
STARTCHAR amacron
ENCODING 257
SWIDTH 507 0
DWIDTH 9 0
BBX 9 15 0 0
BITMAP
3E00
2200
1C00
2400
2600
2A00
3A00
4E00
4900
5780
7C80
9480
9F80
9280
E380
ENDCHAR
STARTCHAR Abreve
ENCODING 258
SWIDTH 507 0
DWIDTH 9 0
BBX 9 17 0 0
BITMAP
3600
5500
2E00
3200
1C00
2400
2600
2A00
3A00
4E00
4900
5780
7C80
9480
9F80
9280
E380
ENDCHAR
STARTCHAR abreve
ENCODING 259
SWIDTH 507 0
DWIDTH 9 0
BBX 9 17 0 0
BITMAP
3600
5500
2E00
3200
1C00
2400
2600
2A00
3A00
4E00
4900
5780
7C80
9480
9F80
9280
E380
ENDCHAR
STARTCHAR Aogonek
ENCODING 260
SWIDTH 507 0
DWIDTH 9 0
BBX 10 17 0 -4
BITMAP
1800
2400
2600
2A00
3A00
4E00
4900
5780
7C40
9440
9F80
9280
E380
0300
0380
0140
0080
ENDCHAR
STARTCHAR aogonek
ENCODING 261
SWIDTH 507 0
DWIDTH 9 0
BBX 10 17 0 -4
BITMAP
1800
2400
2600
2A00
3A00
4E00
4900
5780
7C40
9440
9F80
9280
E380
0300
0380
0140
0080
ENDCHAR
STARTCHAR Cacute
ENCODING 262
SWIDTH 515 0
DWIDTH 9 0
BBX 9 17 0 0
BITMAP
0300
0500
0A00
0400
3800
4780
4480
3F80
7800
4800
5000
5000
7000
9380
9C80
9480
7F00
ENDCHAR
STARTCHAR cacute
ENCODING 263
SWIDTH 515 0
DWIDTH 9 0
BBX 9 17 0 0
BITMAP
0300
0500
0A00
0400
3800
4780
4480
3F80
7800
4800
5000
5000
7000
9380
9C80
9480
7F00
ENDCHAR
STARTCHAR Ccircumflex
ENCODING 264
SWIDTH 515 0
DWIDTH 9 0
BBX 9 18 0 0
BITMAP
0E00
0A00
1500
1A80
0100
3800
4780
4480
3F80
7800
4800
5000
5000
7000
9380
9C80
9480
7F00
ENDCHAR
STARTCHAR ccircumflex
ENCODING 265
SWIDTH 515 0
DWIDTH 9 0
BBX 9 18 0 0
BITMAP
0E00
0A00
1500
1A80
0100
3800
4780
4480
3F80
7800
4800
5000
5000
7000
9380
9C80
9480
7F00
ENDCHAR
STARTCHAR Cdotaccent
ENCODING 266
SWIDTH 515 0
DWIDTH 9 0
BBX 9 16 0 0
BITMAP
0E00
0A00
0400
3800
4780
4480
3F80
7800
4800
5000
5000
7000
9380
9C80
9480
7F00
ENDCHAR
STARTCHAR cdotaccent
ENCODING 267
SWIDTH 515 0
DWIDTH 9 0
BBX 9 16 0 0
BITMAP
0E00
0A00
0400
3800
4780
4480
3F80
7800
4800
5000
5000
7000
9380
9C80
9480
7F00
ENDCHAR
STARTCHAR Ccaron
ENCODING 268
SWIDTH 515 0
DWIDTH 9 0
BBX 9 17 0 0
BITMAP
1B00
1500
1500
0A00
3C00
4780
4480
3F80
7800
4800
5000
5000
7000
9380
9C80
9480
7F00
ENDCHAR
STARTCHAR ccaron
ENCODING 269
SWIDTH 515 0
DWIDTH 9 0
BBX 9 17 0 0
BITMAP
1B00
1500
1500
0A00
3C00
4780
4480
3F80
7800
4800
5000
5000
7000
9380
9C80
9480
7F00
ENDCHAR
STARTCHAR Dcaron
ENCODING 270
SWIDTH 520 0
DWIDTH 9 0
BBX 10 18 0 0
BITMAP
3600
2A00
1A00
1400
0800
3800
4400
6200
5200
6D80
5440
5280
5340
6C80
5300
5200
9400
7800
ENDCHAR
STARTCHAR dcaron
ENCODING 271
SWIDTH 520 0
DWIDTH 9 0
BBX 10 18 0 0
BITMAP
3600
2A00
1A00
1400
0800
3800
4400
6200
5200
6D80
5440
5280
5340
6C80
5300
5200
9400
7800
ENDCHAR
STARTCHAR Dcroat
ENCODING 272
SWIDTH 669 0
DWIDTH 12 0
BBX 12 13 0 0
BITMAP
0F00
1900
0C80
1240
1FA0
FA90
8650
E6B0
1F10
12A0
1240
1280
1F00
ENDCHAR
STARTCHAR dcroat
ENCODING 273
SWIDTH 669 0
DWIDTH 12 0
BBX 12 13 0 0
BITMAP
0F00
1900
0C80
1240
1FA0
FA90
8650
E6B0
1F10
12A0
1240
1280
1F00
ENDCHAR
STARTCHAR Emacron
ENCODING 274
SWIDTH 490 0
DWIDTH 9 0
BBX 9 16 0 0
BITMAP
3E00
2200
1C00
2900
5680
5480
5F00
7000
5E00
5200
5A00
7400
5900
5680
9480
7F00
ENDCHAR
STARTCHAR emacron
ENCODING 275
SWIDTH 490 0
DWIDTH 9 0
BBX 9 16 0 0
BITMAP
3E00
2200
1C00
2900
5680
5480
5F00
7000
5E00
5200
5A00
7400
5900
5680
9480
7F00
ENDCHAR
STARTCHAR Ebreve
ENCODING 276
SWIDTH 490 0
DWIDTH 9 0
BBX 9 18 0 0
BITMAP
3200
3500
2D00
3A00
0600
2900
5680
5480
5F00
7000
5E00
5200
5A00
7400
5900
5680
9480
7F00
ENDCHAR
STARTCHAR ebreve
ENCODING 277
SWIDTH 490 0
DWIDTH 9 0
BBX 9 18 0 0
BITMAP
3200
3500
2D00
3A00
0600
2900
5680
5480
5F00
7000
5E00
5200
5A00
7400
5900
5680
9480
7F00
ENDCHAR
STARTCHAR Edotaccent
ENCODING 278
SWIDTH 490 0
DWIDTH 9 0
BBX 9 16 0 0
BITMAP
1C00
1400
0800
2900
5680
5480
5F00
7000
5E00
5200
5A00
7400
5900
5680
9480
7F00
ENDCHAR
STARTCHAR edotaccent
ENCODING 279
SWIDTH 490 0
DWIDTH 9 0
BBX 9 16 0 0
BITMAP
1C00
1400
0800
2900
5680
5480
5F00
7000
5E00
5200
5A00
7400
5900
5680
9480
7F00
ENDCHAR
STARTCHAR Eogonek
ENCODING 280
SWIDTH 490 0
DWIDTH 9 0
BBX 9 17 0 -4
BITMAP
2900
5680
5480
5F00
7000
5E00
5200
5A00
7400
5900
5680
9480
7F00
0600
0F00
0280
0100
ENDCHAR
STARTCHAR eogonek
ENCODING 281
SWIDTH 490 0
DWIDTH 9 0
BBX 9 17 0 -4
BITMAP
2900
5680
5480
5F00
7000
5E00
5200
5A00
7400
5900
5680
9480
7F00
0600
0F00
0280
0100
ENDCHAR
STARTCHAR Ecaron
ENCODING 282
SWIDTH 490 0
DWIDTH 9 0
BBX 9 17 0 0
BITMAP
3F00
2900
1600
1400
2900
5680
5480
5F00
7000
5E00
5200
5A00
7400
5900
5680
9480
7F00
ENDCHAR
STARTCHAR ecaron
ENCODING 283
SWIDTH 490 0
DWIDTH 9 0
BBX 9 17 0 0
BITMAP
3F00
2900
1600
1400
2900
5680
5480
5F00
7000
5E00
5200
5A00
7400
5900
5680
9480
7F00
ENDCHAR
STARTCHAR Gcircumflex
ENCODING 284
SWIDTH 557 0
DWIDTH 10 0
BBX 10 17 0 0
BITMAP
0E00
0A00
1500
2B00
3A00
4580
4480
3F80
7800
4980
5240
5240
7240
93C0
9E40
9640
7FC0
ENDCHAR
STARTCHAR gcircumflex
ENCODING 285
SWIDTH 557 0
DWIDTH 10 0
BBX 10 17 0 0
BITMAP
0E00
0A00
1500
2B00
3A00
4580
4480
3F80
7800
4980
5240
5240
7240
93C0
9E40
9640
7FC0
ENDCHAR
STARTCHAR Gbreve
ENCODING 286
SWIDTH 557 0
DWIDTH 10 0
BBX 10 18 0 0
BITMAP
1B00
2B00
1F00
1900
0600
3800
4780
4480
3F80
7800
4980
5240
5240
7240
93C0
9E40
9640
7FC0
ENDCHAR
STARTCHAR gbreve
ENCODING 287
SWIDTH 557 0
DWIDTH 10 0
BBX 10 18 0 0
BITMAP
1B00
2B00
1F00
1900
0600
3800
4780
4480
3F80
7800
4980
5240
5240
7240
93C0
9E40
9640
7FC0
ENDCHAR
STARTCHAR Gdotaccent
ENCODING 288
SWIDTH 557 0
DWIDTH 10 0
BBX 10 16 0 0
BITMAP
0E00
0A00
0400
3800
4780
4480
3F80
7800
4980
5240
5240
7240
93C0
9E40
9640
7FC0
ENDCHAR
STARTCHAR gdotaccent
ENCODING 289
SWIDTH 557 0
DWIDTH 10 0
BBX 10 16 0 0
BITMAP
0E00
0A00
0400
3800
4780
4480
3F80
7800
4980
5240
5240
7240
93C0
9E40
9640
7FC0
ENDCHAR
STARTCHAR Gcommaaccent
ENCODING 290
SWIDTH 557 0
DWIDTH 10 0
BBX 10 18 0 -5
BITMAP
3800
4780
4480
3F80
7800
4980
5240
5240
7240
93C0
9E40
9640
7FC0
2000
0C00
1400
2800
1800
ENDCHAR
STARTCHAR gcommaaccent
ENCODING 291
SWIDTH 557 0
DWIDTH 10 0
BBX 10 18 0 -5
BITMAP
3800
4780
4480
3F80
7800
4980
5240
5240
7240
93C0
9E40
9640
7FC0
2000
0C00
1400
2800
1800
ENDCHAR
STARTCHAR Hcircumflex
ENCODING 292
SWIDTH 611 0
DWIDTH 11 0
BBX 11 18 0 0
BITMAP
0E00
0A00
1500
1B00
0200
2180
5240
5140
5140
71C0
5240
5160
57A0
6920
59C0
5E40
9240
71C0
ENDCHAR
STARTCHAR hcircumflex
ENCODING 293
SWIDTH 611 0
DWIDTH 11 0
BBX 11 18 0 0
BITMAP
0E00
0A00
1500
1B00
0200
2180
5240
5140
5140
71C0
5240
5160
57A0
6920
59C0
5E40
9240
71C0
ENDCHAR
STARTCHAR Hbar
ENCODING 294
SWIDTH 706 0
DWIDTH 13 0
BBX 13 13 0 0
BITMAP
10C0
2920
6DA0
AAD8
B888
47F0
28B0
2BD0
3C90
2CE0
2F20
2920
38E0
ENDCHAR
STARTCHAR hbar
ENCODING 295
SWIDTH 706 0
DWIDTH 13 0
BBX 13 13 0 0
BITMAP
10C0
2920
6DA0
AAD8
B888
47F0
28B0
2BD0
3C90
2CE0
2F20
2920
38E0
ENDCHAR
STARTCHAR Itilde
ENCODING 296
SWIDTH 266 0
DWIDTH 5 0
BBX 7 18 -1 0
BITMAP
76
56
AA
B4
48
10
28
28
28
38
28
28
28
38
28
28
48
38
ENDCHAR
STARTCHAR itilde
ENCODING 297
SWIDTH 266 0
DWIDTH 5 0
BBX 7 18 -1 0
BITMAP
76
56
AA
B4
48
10
28
28
28
38
28
28
28
38
28
28
48
38
ENDCHAR
STARTCHAR Imacron
ENCODING 298
SWIDTH 266 0
DWIDTH 5 0
BBX 5 16 0 0
BITMAP
F8
88
70
20
50
50
50
70
50
50
50
70
50
50
90
70
ENDCHAR
STARTCHAR imacron
ENCODING 299
SWIDTH 266 0
DWIDTH 5 0
BBX 5 16 0 0
BITMAP
F8
88
70
20
50
50
50
70
50
50
50
70
50
50
90
70
ENDCHAR
STARTCHAR Ibreve
ENCODING 300
SWIDTH 266 0
DWIDTH 5 0
BBX 6 18 0 0
BITMAP
D8
D4
B8
C8
30
20
50
50
50
70
50
50
50
70
50
50
90
70
ENDCHAR
STARTCHAR ibreve
ENCODING 301
SWIDTH 266 0
DWIDTH 5 0
BBX 6 18 0 0
BITMAP
D8
D4
B8
C8
30
20
50
50
50
70
50
50
50
70
50
50
90
70
ENDCHAR
STARTCHAR Iogonek
ENCODING 302
SWIDTH 266 0
DWIDTH 5 0
BBX 4 17 0 -4
BITMAP
20
50
50
50
70
50
50
50
70
50
50
90
50
60
A0
50
30
ENDCHAR
STARTCHAR iogonek
ENCODING 303
SWIDTH 266 0
DWIDTH 5 0
BBX 4 17 0 -4
BITMAP
20
50
50
50
70
50
50
50
70
50
50
90
50
60
A0
50
30
ENDCHAR
STARTCHAR Idotaccent
ENCODING 304
SWIDTH 266 0
DWIDTH 5 0
BBX 4 16 0 0
BITMAP
70
50
20
20
50
50
50
70
50
50
50
70
50
50
90
70
ENDCHAR
STARTCHAR dotlessi
ENCODING 305
SWIDTH 266 0
DWIDTH 5 0
BBX 4 13 0 0
BITMAP
20
50
50
50
70
50
50
50
70
50
50
90
70
ENDCHAR
STARTCHAR IJ
ENCODING 306
SWIDTH 750 0
DWIDTH 14 0
BBX 13 14 0 -1
BITMAP
2030
5048
5028
5028
7038
5048
5248
5548
68B8
55C8
5248
9128
70B8
00C0
ENDCHAR
STARTCHAR ij
ENCODING 307
SWIDTH 749 0
DWIDTH 13 0
BBX 13 14 0 -1
BITMAP
2030
5048
5028
5028
7038
5048
5248
5548
68B8
55C8
5248
9128
70B8
00C0
ENDCHAR
STARTCHAR Jcircumflex
ENCODING 308
SWIDTH 484 0
DWIDTH 9 0
BBX 9 18 0 -1
BITMAP
0700
0500
0A80
1580
0B00
0500
0500
0500
0700
0500
4500
A500
9700
5900
6500
2300
1700
0800
ENDCHAR
STARTCHAR jcircumflex
ENCODING 309
SWIDTH 482 0
DWIDTH 9 0
BBX 9 18 0 -1
BITMAP
0700
0500
0A80
1580
0B00
0500
0500
0500
0700
0500
4500
A500
9700
5900
6500
2300
1700
0800
ENDCHAR
STARTCHAR Kcommaaccent
ENCODING 310
SWIDTH 541 0
DWIDTH 10 0
BBX 10 18 0 -5
BITMAP
2000
5180
5240
5480
7A80
5100
5200
5500
7D00
5680
5480
9240
7380
0000
0C00
1400
2800
1000
ENDCHAR
STARTCHAR kcommaaccent
ENCODING 311
SWIDTH 541 0
DWIDTH 10 0
BBX 10 18 0 -5
BITMAP
2000
5180
5240
5480
7A80
5100
5200
5500
7D00
5680
5480
9240
7380
0000
0C00
1400
2800
1000
ENDCHAR
STARTCHAR kgreenlandic
ENCODING 312
SWIDTH 541 0
DWIDTH 10 0
BBX 10 13 0 0
BITMAP
2000
5180
5240
5480
7A80
5100
5200
5500
7D00
5680
5480
9240
7380
ENDCHAR
STARTCHAR Lacute
ENCODING 313
SWIDTH 467 0
DWIDTH 8 0
BBX 9 17 0 0
BITMAP
1C00
1400
2800
1000
2000
5000
5000
5000
7000
5000
5000
5000
7000
5000
5F80
9880
7F00
ENDCHAR
STARTCHAR lacute
ENCODING 314
SWIDTH 467 0
DWIDTH 8 0
BBX 9 17 0 0
BITMAP
1C00
1400
2800
1000
2000
5000
5000
5000
7000
5000
5000
5000
7000
5000
5F80
9880
7F00
ENDCHAR
STARTCHAR Lcommaaccent
ENCODING 315
SWIDTH 467 0
DWIDTH 8 0
BBX 9 18 0 -5
BITMAP
2000
5000
5000
5000
7000
5000
5000
5000
7000
5000
5F80
9880
7F00
0800
1400
2800
3000
1000
ENDCHAR
STARTCHAR lcommaaccent
ENCODING 316
SWIDTH 467 0
DWIDTH 8 0
BBX 9 18 0 -5
BITMAP
2000
5000
5000
5000
7000
5000
5000
5000
7000
5000
5F80
9880
7F00
0800
1400
2800
3000
1000
ENDCHAR
STARTCHAR Lcaron
ENCODING 317
SWIDTH 467 0
DWIDTH 8 0
BBX 9 14 0 0
BITMAP
0200
2300
5500
5A00
5400
7000
5000
5000
5000
7000
5000
5F80
9880
7F00
ENDCHAR
STARTCHAR lcaron
ENCODING 318
SWIDTH 467 0
DWIDTH 8 0
BBX 9 14 0 0
BITMAP
0200
2300
5500
5A00
5400
7000
5000
5000
5000
7000
5000
5F80
9880
7F00
ENDCHAR
STARTCHAR Ldot
ENCODING 319
SWIDTH 611 0
DWIDTH 11 0
BBX 11 13 0 0
BITMAP
2000
5000
5000
5000
7000
51E0
50A0
50C0
7000
5000
5F80
9880
7F00
ENDCHAR
STARTCHAR ldotaccent
ENCODING 320
SWIDTH 611 0
DWIDTH 11 0
BBX 11 13 0 0
BITMAP
2000
5000
5000
5000
7000
51E0
50A0
50C0
7000
5000
5F80
9880
7F00
ENDCHAR
STARTCHAR Lslash
ENCODING 321
SWIDTH 505 0
DWIDTH 9 0
BBX 9 13 0 0
BITMAP
3000
4800
2800
4800
7C00
4A00
CA00
CC00
7800
4980
4E80
4C80
7F80
ENDCHAR
STARTCHAR lslash
ENCODING 322
SWIDTH 505 0
DWIDTH 9 0
BBX 9 13 0 0
BITMAP
3000
4800
2800
4800
7C00
4A00
CA00
CC00
7800
4980
4E80
4C80
7F80
ENDCHAR
STARTCHAR Nacute
ENCODING 323
SWIDTH 598 0
DWIDTH 11 0
BBX 10 16 0 0
BITMAP
0300
0500
0A00
3680
4940
5940
5540
6DC0
5240
5240
5940
77C0
5540
54C0
9240
73C0
ENDCHAR
STARTCHAR nacute
ENCODING 324
SWIDTH 598 0
DWIDTH 11 0
BBX 10 16 0 0
BITMAP
0300
0500
0A00
3680
4940
5940
5540
6DC0
5240
5240
5940
77C0
5540
54C0
9240
73C0
ENDCHAR
STARTCHAR Ncommaaccent
ENCODING 325
SWIDTH 598 0
DWIDTH 11 0
BBX 10 18 0 -5
BITMAP
3080
4940
5940
5540
6DC0
5240
5240
5940
77C0
5540
54C0
9240
73C0
0400
0A00
1400
1400
0800
ENDCHAR
STARTCHAR ncommaaccent
ENCODING 326
SWIDTH 598 0
DWIDTH 11 0
BBX 10 18 0 -5
BITMAP
3080
4940
5940
5540
6DC0
5240
5240
5940
77C0
5540
54C0
9240
73C0
0400
0A00
1400
1400
0800
ENDCHAR
STARTCHAR Ncaron
ENCODING 327
SWIDTH 598 0
DWIDTH 11 0
BBX 10 17 0 0
BITMAP
1B00
1500
0D00
0A00
3480
4940
5940
5540
6DC0
5240
5240
5940
77C0
5540
54C0
9240
73C0
ENDCHAR
STARTCHAR ncaron
ENCODING 328
SWIDTH 598 0
DWIDTH 11 0
BBX 10 17 0 0
BITMAP
1B00
1500
0D00
0A00
3480
4940
5940
5540
6DC0
5240
5240
5940
77C0
5540
54C0
9240
73C0
ENDCHAR
STARTCHAR napostrophe
ENCODING 329
SWIDTH 807 0
DWIDTH 15 0
BBX 14 13 0 0
BITMAP
2618
59A4
A594
C554
07DC
0964
0924
0934
07DC
0954
094C
094C
0F3C
ENDCHAR
STARTCHAR Eng
ENCODING 330
SWIDTH 595 0
DWIDTH 11 0
BBX 10 18 0 -5
BITMAP
3080
4940
5940
5540
6D40
53C0
5240
5940
7740
5540
54C0
92C0
7340
03C0
3C40
4480
2F00
1000
ENDCHAR
STARTCHAR eng
ENCODING 331
SWIDTH 595 0
DWIDTH 11 0
BBX 10 18 0 -5
BITMAP
3080
4940
5940
5540
6D40
53C0
5240
5940
7740
5540
54C0
92C0
7340
03C0
3C40
4480
2F00
1000
ENDCHAR
STARTCHAR Omacron
ENCODING 332
SWIDTH 612 0
DWIDTH 11 0
BBX 11 16 0 0
BITMAP
0F00
1100
0E00
3800
47C0
4440
3FC0
79C0
4940
5140
5140
71C0
93A0
9C40
9460
7FC0
ENDCHAR
STARTCHAR omacron
ENCODING 333
SWIDTH 612 0
DWIDTH 11 0
BBX 11 16 0 0
BITMAP
0F00
1100
0E00
3800
47C0
4440
3FC0
79C0
4940
5140
5140
71C0
93A0
9C40
9460
7FC0
ENDCHAR
STARTCHAR Obreve
ENCODING 334
SWIDTH 612 0
DWIDTH 11 0
BBX 11 18 0 0
BITMAP
1B00
1A80
1700
1900
0700
3800
47C0
4440
3FC0
79C0
4940
5140
5140
71C0
93A0
9C40
9460
7FC0
ENDCHAR
STARTCHAR obreve
ENCODING 335
SWIDTH 612 0
DWIDTH 11 0
BBX 11 18 0 0
BITMAP
1B00
1A80
1700
1900
0700
3800
47C0
4440
3FC0
79C0
4940
5140
5140
71C0
93A0
9C40
9460
7FC0
ENDCHAR
STARTCHAR Ohungarumlaut
ENCODING 336
SWIDTH 612 0
DWIDTH 11 0
BBX 11 17 0 0
BITMAP
06C0
0B40
1680
0900
3800
47C0
4440
3FC0
79C0
4940
5140
5140
71C0
93A0
9C40
9460
7FC0
ENDCHAR
STARTCHAR ohungarumlaut
ENCODING 337
SWIDTH 612 0
DWIDTH 11 0
BBX 11 17 0 0
BITMAP
06C0
0B40
1680
0900
3800
47C0
4440
3FC0
79C0
4940
5140
5140
71C0
93A0
9C40
9460
7FC0
ENDCHAR
STARTCHAR OE
ENCODING 338
SWIDTH 831 0
DWIDTH 15 0
BBX 15 13 0 0
BITMAP
38C6
47BA
44D2
3FBC
79C0
4938
5148
5178
71C0
93E4
9C5A
94D2
7FFC
ENDCHAR
STARTCHAR oe
ENCODING 339
SWIDTH 831 0
DWIDTH 15 0
BBX 15 13 0 0
BITMAP
38C6
47BA
44D2
3FBC
79C0
4938
5148
5178
71C0
93E4
9C5A
94D2
7FFC
ENDCHAR
STARTCHAR Racute
ENCODING 340
SWIDTH 532 0
DWIDTH 10 0
BBX 10 16 0 0
BITMAP
0700
0500
0A00
3400
4E00
4580
7840
7680
5580
5F00
5A00
7500
5E80
5480
9240
F380
ENDCHAR
STARTCHAR racute
ENCODING 341
SWIDTH 532 0
DWIDTH 10 0
BBX 10 16 0 0
BITMAP
0700
0500
0A00
3400
4E00
4580
7840
7680
5580
5F00
5A00
7500
5E80
5480
9240
F380
ENDCHAR
STARTCHAR Rcommaaccent
ENCODING 342
SWIDTH 532 0
DWIDTH 10 0
BBX 10 18 0 -5
BITMAP
3000
4E00
4580
7840
7680
5580
5F00
5A00
7500
5E80
5480
9240
9280
6900
1400
1400
2800
1000
ENDCHAR
STARTCHAR rcommaaccent
ENCODING 343
SWIDTH 532 0
DWIDTH 10 0
BBX 10 18 0 -5
BITMAP
3000
4E00
4580
7840
7680
5580
5F00
5A00
7500
5E80
5480
9240
9280
6900
1400
1400
2800
1000
ENDCHAR
STARTCHAR Rcaron
ENCODING 344
SWIDTH 532 0
DWIDTH 10 0
BBX 10 18 0 0
BITMAP
3F00
2D00
1600
1400
0800
3000
4E00
4580
7840
7680
5580
5F00
5A00
7500
5E80
5480
9240
F380
ENDCHAR
STARTCHAR rcaron
ENCODING 345
SWIDTH 532 0
DWIDTH 10 0
BBX 10 18 0 0
BITMAP
3F00
2D00
1600
1400
0800
3000
4E00
4580
7840
7680
5580
5F00
5A00
7500
5E80
5480
9240
F380
ENDCHAR
STARTCHAR Sacute
ENCODING 346
SWIDTH 442 0
DWIDTH 8 0
BBX 8 17 0 0
BITMAP
0E
14
18
08
1E
E9
9F
98
48
38
24
12
1E
0A
F9
95
FA
ENDCHAR
STARTCHAR sacute
ENCODING 347
SWIDTH 442 0
DWIDTH 8 0
BBX 8 17 0 0
BITMAP
0E
14
18
08
1E
E9
9F
98
48
38
24
12
1E
0A
F9
95
FA
ENDCHAR
STARTCHAR Scircumflex
ENCODING 348
SWIDTH 442 0
DWIDTH 8 0
BBX 8 18 0 0
BITMAP
18
2C
54
5A
24
1E
E9
9F
98
48
38
24
12
1E
0A
F9
95
FA
ENDCHAR
STARTCHAR scircumflex
ENCODING 349
SWIDTH 442 0
DWIDTH 8 0
BBX 8 18 0 0
BITMAP
18
2C
54
5A
24
1E
E9
9F
98
48
38
24
12
1E
0A
F9
95
FA
ENDCHAR
STARTCHAR Scedilla
ENCODING 350
SWIDTH 442 0
DWIDTH 8 0
BBX 8 17 0 -4
BITMAP
1E
E9
9F
98
48
38
24
12
1E
0A
F9
95
BE
54
34
48
30
ENDCHAR
STARTCHAR scedilla
ENCODING 351
SWIDTH 442 0
DWIDTH 8 0
BBX 8 17 0 -4
BITMAP
1E
E9
9F
98
48
38
24
12
1E
0A
F9
95
BE
54
34
48
30
ENDCHAR
STARTCHAR Scaron
ENCODING 352
SWIDTH 442 0
DWIDTH 8 0
BBX 8 18 0 0
BITMAP
7E
5A
2C
28
10
1E
E9
9F
98
48
38
24
12
1E
0A
F9
95
FA
ENDCHAR
STARTCHAR scaron
ENCODING 353
SWIDTH 442 0
DWIDTH 8 0
BBX 8 18 0 0
BITMAP
7E
5A
2C
28
10
1E
E9
9F
98
48
38
24
12
1E
0A
F9
95
FA
ENDCHAR
STARTCHAR Tcommaaccent
ENCODING 354
SWIDTH 453 0
DWIDTH 8 0
BBX 8 18 0 -5
BITMAP
FF
89
89
F7
24
3C
24
24
3C
24
24
24
2C
10
28
28
50
20
ENDCHAR
STARTCHAR tcommaaccent
ENCODING 355
SWIDTH 453 0
DWIDTH 8 0
BBX 8 18 0 -5
BITMAP
FF
89
89
F7
24
3C
24
24
3C
24
24
24
2C
10
28
28
50
20
ENDCHAR
STARTCHAR Tcaron
ENCODING 356
SWIDTH 453 0
DWIDTH 8 0
BBX 8 18 0 0
BITMAP
76
2A
2C
1C
00
FF
89
89
F7
24
3C
24
24
3C
24
24
24
3C
ENDCHAR
STARTCHAR tcaron
ENCODING 357
SWIDTH 453 0
DWIDTH 8 0
BBX 8 18 0 0
BITMAP
76
2A
2C
1C
00
FF
89
89
F7
24
3C
24
24
3C
24
24
24
3C
ENDCHAR
STARTCHAR Tbar
ENCODING 358
SWIDTH 455 0
DWIDTH 8 0
BBX 8 13 0 0
BITMAP
FA
8D
89
FF
24
3C
5E
42
7A
24
24
24
3C
ENDCHAR
STARTCHAR tbar
ENCODING 359
SWIDTH 455 0
DWIDTH 8 0
BBX 8 13 0 0
BITMAP
FA
8D
89
FF
24
3C
5E
42
7A
24
24
24
3C
ENDCHAR
STARTCHAR Utilde
ENCODING 360
SWIDTH 583 0
DWIDTH 11 0
BBX 10 19 0 -1
BITMAP
0DC0
1740
2580
2D00
1200
3180
4A40
4A40
5240
73C0
5240
5240
5240
B1C0
93C0
9C40
94C0
7FC0
2000
ENDCHAR
STARTCHAR utilde
ENCODING 361
SWIDTH 583 0
DWIDTH 11 0
BBX 10 19 0 -1
BITMAP
0DC0
1740
2580
2D00
1200
3180
4A40
4A40
5240
73C0
5240
5240
5240
B1C0
93C0
9C40
94C0
7FC0
2000
ENDCHAR
STARTCHAR Umacron
ENCODING 362
SWIDTH 583 0
DWIDTH 11 0
BBX 10 17 0 -1
BITMAP
1F00
1100
0E00
3180
4A40
4A40
5240
73C0
5240
5240
5240
B1C0
93C0
9C40
94C0
7FC0
2000
ENDCHAR
STARTCHAR umacron
ENCODING 363
SWIDTH 583 0
DWIDTH 11 0
BBX 10 17 0 -1
BITMAP
1F00
1100
0E00
3180
4A40
4A40
5240
73C0
5240
5240
5240
B1C0
93C0
9C40
94C0
7FC0
2000
ENDCHAR
STARTCHAR Ubreve
ENCODING 364
SWIDTH 583 0
DWIDTH 11 0
BBX 10 19 0 -1
BITMAP
1B00
2B00
2F00
1900
0600
3180
4A40
4A40
5240
73C0
5240
5240
5240
B1C0
93C0
9C40
94C0
7FC0
2000
ENDCHAR
STARTCHAR ubreve
ENCODING 365
SWIDTH 583 0
DWIDTH 11 0
BBX 10 19 0 -1
BITMAP
1B00
2B00
2F00
1900
0600
3180
4A40
4A40
5240
73C0
5240
5240
5240
B1C0
93C0
9C40
94C0
7FC0
2000
ENDCHAR
STARTCHAR Uring
ENCODING 366
SWIDTH 583 0
DWIDTH 11 0
BBX 10 20 0 -1
BITMAP
0A00
1600
3D00
1F00
1D00
0200
3180
4A40
4A40
5240
73C0
5240
5240
5240
B1C0
93C0
9C40
94C0
7FC0
2000
ENDCHAR
STARTCHAR uring
ENCODING 367
SWIDTH 583 0
DWIDTH 11 0
BBX 10 20 0 -1
BITMAP
0A00
1600
3D00
1F00
1D00
0200
3180
4A40
4A40
5240
73C0
5240
5240
5240
B1C0
93C0
9C40
94C0
7FC0
2000
ENDCHAR
STARTCHAR Uhungarumlaut
ENCODING 368
SWIDTH 583 0
DWIDTH 11 0
BBX 10 18 0 -1
BITMAP
0FC0
1680
1B00
0900
3180
4A40
4A40
5240
73C0
5240
5240
5240
B1C0
93C0
9C40
94C0
7FC0
2000
ENDCHAR
STARTCHAR uhungarumlaut
ENCODING 369
SWIDTH 583 0
DWIDTH 11 0
BBX 10 18 0 -1
BITMAP
0FC0
1680
1B00
0900
3180
4A40
4A40
5240
73C0
5240
5240
5240
B1C0
93C0
9C40
94C0
7FC0
2000
ENDCHAR
STARTCHAR Uogonek
ENCODING 370
SWIDTH 583 0
DWIDTH 11 0
BBX 10 17 0 -4
BITMAP
3180
4A40
4A40
5240
73C0
5240
5240
5240
B1C0
93C0
9C40
94C0
7F40
2280
0280
0140
00C0
ENDCHAR
STARTCHAR uogonek
ENCODING 371
SWIDTH 583 0
DWIDTH 11 0
BBX 10 17 0 -4
BITMAP
3180
4A40
4A40
5240
73C0
5240
5240
5240
B1C0
93C0
9C40
94C0
7F40
2280
0280
0140
00C0
ENDCHAR
STARTCHAR Wcircumflex
ENCODING 372
SWIDTH 735 0
DWIDTH 13 0
BBX 13 17 0 0
BITMAP
0700
0500
0A80
0D40
0190
E268
9548
94C8
B4E8
5BD8
5A50
4A50
57F0
2B90
33A0
3320
3CE0
ENDCHAR
STARTCHAR wcircumflex
ENCODING 373
SWIDTH 735 0
DWIDTH 13 0
BBX 13 17 0 0
BITMAP
0700
0500
0A80
0D40
0190
E268
9548
94C8
B4E8
5BD8
5A50
4A50
57F0
2B90
33A0
3320
3CE0
ENDCHAR
STARTCHAR Ycircumflex
ENCODING 374
SWIDTH 484 0
DWIDTH 9 0
BBX 9 17 0 0
BITMAP
1800
2400
2A00
5A00
2400
E380
A480
9480
7F00
4900
2A00
1200
1C00
2400
2400
4800
3800
ENDCHAR
STARTCHAR ycircumflex
ENCODING 375
SWIDTH 484 0
DWIDTH 9 0
BBX 9 17 0 0
BITMAP
1800
2400
2A00
5A00
2400
E380
A480
9480
7F00
4900
2A00
1200
1C00
2400
2400
4800
3800
ENDCHAR
STARTCHAR Ydieresis
ENCODING 376
SWIDTH 484 0
DWIDTH 9 0
BBX 9 15 0 0
BITMAP
7F00
5600
2000
E380
A480
9480
7F00
4900
2A00
1200
1C00
2400
2400
4800
3800
ENDCHAR
STARTCHAR Zacute
ENCODING 377
SWIDTH 458 0
DWIDTH 8 0
BBX 8 17 0 0
BITMAP
0E
0A
14
08
32
4D
49
7F
1A
16
24
24
58
4A
9D
A9
7E
ENDCHAR
STARTCHAR zacute
ENCODING 378
SWIDTH 458 0
DWIDTH 8 0
BBX 8 17 0 0
BITMAP
0E
0A
14
08
32
4D
49
7F
1A
16
24
24
58
4A
9D
A9
7E
ENDCHAR
STARTCHAR Zdotaccent
ENCODING 379
SWIDTH 458 0
DWIDTH 8 0
BBX 8 16 0 0
BITMAP
1C
14
08
32
4D
49
7F
1A
16
24
24
58
4A
9D
A9
7E
ENDCHAR
STARTCHAR zdotaccent
ENCODING 380
SWIDTH 458 0
DWIDTH 8 0
BBX 8 16 0 0
BITMAP
1C
14
08
32
4D
49
7F
1A
16
24
24
58
4A
9D
A9
7E
ENDCHAR
STARTCHAR Zcaron
ENCODING 381
SWIDTH 458 0
DWIDTH 8 0
BBX 8 17 0 0
BITMAP
76
2A
2C
18
32
4D
49
7F
1A
16
24
24
58
4A
9D
A9
7E
ENDCHAR
STARTCHAR zcaron
ENCODING 382
SWIDTH 458 0
DWIDTH 8 0
BBX 8 17 0 0
BITMAP
76
2A
2C
18
32
4D
49
7F
1A
16
24
24
58
4A
9D
A9
7E
ENDCHAR
STARTCHAR AEacute
ENCODING 508
SWIDTH 797 0
DWIDTH 14 0
BBX 14 17 0 0
BITMAP
00C0
0140
0280
0100
019C
0E64
0964
127C
1BC0
2270
2648
4E68
7BD0
9260
9E7C
A264
63BC
ENDCHAR
STARTCHAR aeacute
ENCODING 509
SWIDTH 797 0
DWIDTH 14 0
BBX 14 17 0 0
BITMAP
00C0
0140
0280
0100
019C
0E64
0964
127C
1BC0
2270
2648
4E68
7BD0
9260
9E7C
A264
63BC
ENDCHAR
STARTCHAR Oslashacute
ENCODING 510
SWIDTH 612 0
DWIDTH 11 0
BBX 11 18 0 -1
BITMAP
0380
0500
0600
0200
3880
4740
4540
3E40
7EC0
4940
4940
5340
7BC0
A7A0
A440
CC60
4FC0
3000
ENDCHAR
STARTCHAR oslashacute
ENCODING 511
SWIDTH 612 0
DWIDTH 11 0
BBX 11 18 0 -1
BITMAP
0380
0500
0600
0200
3880
4740
4540
3E40
7EC0
4940
4940
5340
7BC0
A7A0
A440
CC60
4FC0
3000
ENDCHAR
STARTCHAR dotlessj
ENCODING 567
SWIDTH 482 0
DWIDTH 9 0
BBX 8 14 0 -1
BITMAP
02
05
05
05
07
05
45
A5
97
59
65
23
17
08
ENDCHAR
STARTCHAR circumflex
ENCODING 710
SWIDTH 308 0
DWIDTH 6 0
BBX 6 5 0 13
BITMAP
70
50
A8
D4
08
ENDCHAR
STARTCHAR caron
ENCODING 711
SWIDTH 310 0
DWIDTH 6 0
BBX 6 4 0 14
BITMAP
DC
A4
68
70
ENDCHAR
STARTCHAR breve
ENCODING 728
SWIDTH 333 0
DWIDTH 6 0
BBX 6 5 0 13
BITMAP
C8
B4
B8
E8
18
ENDCHAR
STARTCHAR dotaccent
ENCODING 729
SWIDTH 166 0
DWIDTH 3 0
BBX 3 3 0 13
BITMAP
E0
A0
40
ENDCHAR
STARTCHAR ring
ENCODING 730
SWIDTH 309 0
DWIDTH 6 0
BBX 6 5 0 14
BITMAP
30
58
B4
B4
F8
ENDCHAR
STARTCHAR ogonek
ENCODING 731
SWIDTH 226 0
DWIDTH 4 0
BBX 4 5 0 -4
BITMAP
60
A0
A0
D0
30
ENDCHAR
STARTCHAR tilde
ENCODING 732
SWIDTH 410 0
DWIDTH 7 0
BBX 7 5 0 13
BITMAP
76
5A
AA
D4
08
ENDCHAR
STARTCHAR hungarumlaut
ENCODING 733
SWIDTH 361 0
DWIDTH 7 0
BBX 7 4 0 13
BITMAP
7E
74
A8
58
ENDCHAR
STARTCHAR uni0312
ENCODING 786
SWIDTH 202 0
DWIDTH 4 0
BBX 4 4 0 9
BITMAP
20
50
A0
C0
ENDCHAR
STARTCHAR uni0315
ENCODING 789
SWIDTH 202 0
DWIDTH 4 0
BBX 4 4 0 9
BITMAP
20
50
A0
C0
ENDCHAR
STARTCHAR uni0326
ENCODING 806
SWIDTH 201 0
DWIDTH 4 0
BBX 4 4 0 -5
BITMAP
70
60
A0
40
ENDCHAR
STARTCHAR Wgrave
ENCODING 7808
SWIDTH 735 0
DWIDTH 13 0
BBX 13 17 0 0
BITMAP
0600
0A00
0600
0500
0210
E268
9548
94C8
B4E8
5BD8
5A50
4A50
57F0
2B90
33A0
3320
3CE0
ENDCHAR
STARTCHAR wgrave
ENCODING 7809
SWIDTH 735 0
DWIDTH 13 0
BBX 13 17 0 0
BITMAP
0600
0A00
0600
0500
0210
E268
9548
94C8
B4E8
5BD8
5A50
4A50
57F0
2B90
33A0
3320
3CE0
ENDCHAR
STARTCHAR Wacute
ENCODING 7810
SWIDTH 735 0
DWIDTH 13 0
BBX 13 16 0 0
BITMAP
01C0
0280
0300
0110
E268
9548
94C8
B4E8
5BD8
5A50
4A50
57F0
2B90
33A0
3320
3CE0
ENDCHAR
STARTCHAR wacute
ENCODING 7811
SWIDTH 735 0
DWIDTH 13 0
BBX 13 16 0 0
BITMAP
01C0
0280
0300
0110
E268
9548
94C8
B4E8
5BD8
5A50
4A50
57F0
2B90
33A0
3320
3CE0
ENDCHAR
STARTCHAR Wdieresis
ENCODING 7812
SWIDTH 735 0
DWIDTH 13 0
BBX 13 15 0 0
BITMAP
1FC0
0D40
0890
E268
9548
94C8
B4E8
5BD8
5A50
4A50
57F0
2B90
33A0
3320
3CE0
ENDCHAR
STARTCHAR wdieresis
ENCODING 7813
SWIDTH 735 0
DWIDTH 13 0
BBX 13 15 0 0
BITMAP
1FC0
0D40
0890
E268
9548
94C8
B4E8
5BD8
5A50
4A50
57F0
2B90
33A0
3320
3CE0
ENDCHAR
STARTCHAR Ygrave
ENCODING 7922
SWIDTH 484 0
DWIDTH 9 0
BBX 9 17 0 0
BITMAP
1000
2800
2800
1400
0800
E380
A480
9480
7F00
4900
2A00
1200
1C00
2400
2400
4800
3800
ENDCHAR
STARTCHAR ygrave
ENCODING 7923
SWIDTH 484 0
DWIDTH 9 0
BBX 9 17 0 0
BITMAP
1000
2800
2800
1400
0800
E380
A480
9480
7F00
4900
2A00
1200
1C00
2400
2400
4800
3800
ENDCHAR
STARTCHAR endash
ENCODING 8211
SWIDTH 591 0
DWIDTH 11 0
BBX 10 4 0 4
BITMAP
7FC0
8A40
8A40
7FC0
ENDCHAR
STARTCHAR emdash
ENCODING 8212
SWIDTH 726 0
DWIDTH 13 0
BBX 13 4 0 4
BITMAP
7BD0
84A8
8888
7FF0
ENDCHAR
STARTCHAR quoteleft
ENCODING 8216
SWIDTH 291 0
DWIDTH 5 0
BBX 5 7 0 6
BITMAP
38
28
68
50
90
90
F0
ENDCHAR
STARTCHAR quoteright
ENCODING 8217
SWIDTH 291 0
DWIDTH 5 0
BBX 5 7 0 6
BITMAP
38
28
68
50
90
90
F0
ENDCHAR
STARTCHAR quotesinglbase
ENCODING 8218
SWIDTH 228 0
DWIDTH 4 0
BBX 4 4 0 -2
BITMAP
70
90
A0
C0
ENDCHAR
STARTCHAR quotedblleft
ENCODING 8220
SWIDTH 532 0
DWIDTH 10 0
BBX 10 7 0 6
BITMAP
3B80
2A40
6E80
5580
9500
9900
F700
ENDCHAR
STARTCHAR quotedblright
ENCODING 8221
SWIDTH 532 0
DWIDTH 10 0
BBX 10 7 0 6
BITMAP
3B80
2A40
6E80
5580
9500
9900
F700
ENDCHAR
STARTCHAR quotedblbase
ENCODING 8222
SWIDTH 448 0
DWIDTH 8 0
BBX 8 4 0 -2
BITMAP
77
99
B2
DC
ENDCHAR
STARTCHAR dagger
ENCODING 8224
SWIDTH 453 0
DWIDTH 8 0
BBX 8 15 0 -1
BITMAP
18
24
24
E6
A5
BF
64
24
24
3C
24
24
24
24
18
ENDCHAR
STARTCHAR daggerdbl
ENCODING 8225
SWIDTH 462 0
DWIDTH 8 0
BBX 8 15 0 -1
BITMAP
18
24
14
67
A5
BF
64
24
24
7E
A5
A5
67
24
18
ENDCHAR
STARTCHAR bullet
ENCODING 8226
SWIDTH 275 0
DWIDTH 5 0
BBX 3 3 1 5
BITMAP
E0
A0
E0
ENDCHAR
STARTCHAR ellipsis
ENCODING 8230
SWIDTH 605 0
DWIDTH 11 0
BBX 11 3 0 0
BITMAP
64C0
AAA0
EFE0
ENDCHAR
STARTCHAR perthousand
ENCODING 8240
SWIDTH 1249 0
DWIDTH 22 0
BBX 22 12 0 0
BITMAP
7CC000
B4A000
AD4000
ADC000
524000
CD7ED8
32D3E4
03BDBC
02B5B4
02DDF4
04A5D4
031E78
ENDCHAR
STARTCHAR guilsinglleft
ENCODING 8249
SWIDTH 359 0
DWIDTH 6 0
BBX 6 8 0 2
BITMAP
1C
64
88
90
E8
64
14
08
ENDCHAR
STARTCHAR guilsinglright
ENCODING 8250
SWIDTH 359 0
DWIDTH 6 0
BBX 5 8 1 2
BITMAP
E0
90
C8
28
58
90
A0
40
ENDCHAR
STARTCHAR fraction
ENCODING 8260
SWIDTH 266 0
DWIDTH 5 0
BBX 5 12 0 0
BITMAP
38
28
28
70
50
50
50
A0
A0
A0
A0
40
ENDCHAR
STARTCHAR Euro
ENCODING 8364
SWIDTH 690 0
DWIDTH 12 0
BBX 12 13 0 0
BITMAP
0F00
08F0
0890
2FF0
5E00
5200
3200
DA00
9600
74E0
1710
1490
1FE0
ENDCHAR
STARTCHAR partialdiff
ENCODING 8706
SWIDTH 519 0
DWIDTH 9 0
BBX 9 14 0 -1
BITMAP
0C00
1200
0A00
0A00
0F00
1900
2500
6500
BE80
D480
4C80
6280
1B80
0400
ENDCHAR
STARTCHAR minus
ENCODING 8722
SWIDTH 467 0
DWIDTH 8 0
BBX 8 4 0 4
BITMAP
7F
89
89
7E
ENDCHAR
STARTCHAR fi
ENCODING 64257
SWIDTH 741 0
DWIDTH 13 0
BBX 13 13 0 0
BITMAP
2930
56C8
54C8
5F48
7078
5E48
5248
5A48
7478
5048
5048
9048
7070
ENDCHAR
STARTCHAR fl
ENCODING 64258
SWIDTH 942 0
DWIDTH 17 0
BBX 17 13 0 0
BITMAP
293000
56C800
54C800
5F4800
707800
5E4800
524800
5A4800
747800
504C00
504B80
904880
707F80
ENDCHAR
STARTCHAR .notdef
ENCODING -1
SWIDTH 200 0
DWIDTH 4 0
BBX 1 1 0 0
BITMAP
00
ENDCHAR
STARTCHAR .null
ENCODING -1
SWIDTH 0 0
DWIDTH 0 0
BBX 1 1 0 0
BITMAP
00
ENDCHAR
STARTCHAR nonmarkingreturn
ENCODING -1
SWIDTH 200 0
DWIDTH 4 0
BBX 1 1 0 0
BITMAP
00
ENDCHAR
ENDFONT
